<svg width="18" height="20" viewBox="0 0 18 20" fill="none" xmlns="http://www.w3.org/2000/svg">
<path fill-rule="evenodd" clip-rule="evenodd" d="M16.9013 0.980957H1.0921C0.550379 0.980957 0.111328 1.43062 0.111328 1.98544V18.1767C0.111328 18.7314 0.550379 19.1812 1.0921 19.1812H9.60326V12.1331H7.28736V9.38632H9.60326V7.36066C9.60326 5.00992 11.0051 3.72987 13.0527 3.72987C14.0335 3.72987 14.8765 3.80461 15.1221 3.83803V6.29474L13.702 6.29542C12.5885 6.29542 12.3728 6.83735 12.3728 7.63261V9.38632H15.0286L14.6828 12.1331H12.3728V19.1812H16.9013C17.4429 19.1812 17.882 18.7314 17.882 18.1767V1.98544C17.882 1.43062 17.4429 0.980957 16.9013 0.980957Z" fill="#E3CDB1"/>
</svg>
