<svg width="19" height="15" viewBox="0 0 19 15" fill="none" xmlns="http://www.w3.org/2000/svg">
<path fill-rule="evenodd" clip-rule="evenodd" d="M18.0801 1.9464C17.4273 2.24456 16.8771 2.25441 16.2932 1.95954C17.0455 1.49792 17.08 1.17348 17.3519 0.301174C16.6477 0.729112 15.8674 1.04042 15.0373 1.20798C14.3741 0.48352 13.4269 0.0292969 12.3787 0.0292969C10.3657 0.0292969 8.73442 1.70163 8.73442 3.76165C8.73442 4.05406 8.7665 4.33908 8.82825 4.6126C5.79991 4.45736 3.11403 2.97148 1.31676 0.712685C1.00318 1.26383 0.823528 1.90533 0.823528 2.58954C0.823528 3.88485 1.46753 5.02657 2.44436 5.696C1.84688 5.67628 1.28548 5.50872 0.794657 5.22945C0.793855 5.24506 0.793855 5.25984 0.793855 5.27627C0.793855 7.08495 2.04978 8.593 3.71793 8.93634C3.1838 9.08501 2.6208 9.10801 2.07143 9.00123C2.53579 10.483 3.88154 11.5623 5.47591 11.5927C3.91603 12.8445 1.98241 13.366 0.0800781 13.1377C1.69369 14.1965 3.60806 14.8141 5.66678 14.8141C12.3699 14.8141 16.035 9.1269 16.035 4.19451C16.035 4.03188 16.0326 3.87171 16.0254 3.71154C16.7367 3.18586 17.5917 2.6955 18.0801 1.9464Z" fill="#E3CDB1"/>
</svg>
