<svg width="19" height="15" viewBox="0 0 19 15" fill="none" xmlns="http://www.w3.org/2000/svg">
<path fill-rule="evenodd" clip-rule="evenodd" d="M7.6007 10.1462L7.59987 4.79162L12.4635 7.47826L7.6007 10.1462ZM18.2792 3.864C18.2792 3.864 18.1033 2.55074 17.5637 1.97242C16.8792 1.21337 16.112 1.20962 15.7601 1.16518C13.2413 0.972412 9.46289 0.972412 9.46289 0.972412H9.45506C9.45506 0.972412 5.67676 0.972412 3.15783 1.16518C2.80597 1.20962 2.03903 1.21337 1.35431 1.97242C0.814614 2.55074 0.638993 3.864 0.638993 3.864C0.638993 3.864 0.458984 5.40619 0.458984 6.94839V8.3942C0.458984 9.93637 0.638993 11.4786 0.638993 11.4786C0.638993 11.4786 0.814614 12.7918 1.35431 13.3702C2.03903 14.1292 2.93846 14.1052 3.33904 14.1847C4.77908 14.3309 9.45899 14.3762 9.45899 14.3762C9.45899 14.3762 13.2413 14.3701 15.7601 14.1774C16.112 14.133 16.8792 14.1292 17.5637 13.3702C18.1033 12.7918 18.2792 11.4786 18.2792 11.4786C18.2792 11.4786 18.459 9.93637 18.459 8.3942V6.94839C18.459 5.40619 18.2792 3.864 18.2792 3.864Z" fill="#E3CDB1"/>
</svg>
